<svg viewBox="0 0 100 100" xmlns="http://www.w3.org/2000/svg" xmlns:xlink="http://www.w3.org/1999/xlink"><symbol id="d"><path class="sun-glow" fill="url(#a)" d="M66.64 47.86 82 41l-15.36-6.88 9.84-13.66-16.72 1.76 1.7-16.75-13.6 9.89L41 0l-6.88 15.36-13.66-9.84 1.76 16.72-16.75-1.7 9.89 13.6L0 41l15.36 6.83-9.84 13.71 16.72-1.76-1.7 16.75 13.6-9.89L41 82l6.83-15.36 13.66 9.84-1.71-16.72 16.75 1.69z"/><path class="sun-outer" fill="#ffd348" d="M19.28 53.5a25 25 0 1 0 9.15-34.16 25 25 0 0 0-9.15 34.16z"/><path class="sun-inner" fill="url(#b)" d="M22.74 51.5a21 21 0 1 0 7.69-28.69 21 21 0 0 0-7.69 28.69z"/></symbol><symbol id="e"><g mask="url(#c)"><use class="sun-primitive" xlink:href="#d" width="100" height="100" transform="translate(4 -40)"/></g><path fill="#333" d="M88.29 2.7H1.71A1.56 1.56 0 0 1 0 1.35 1.56 1.56 0 0 1 1.71 0h86.58A1.56 1.56 0 0 1 90 1.35a1.56 1.56 0 0 1-1.71 1.35z"/></symbol><defs><radialGradient id="a" cx="41" cy="41" r="41" gradientUnits="userSpaceOnUse"><stop offset="54%" stop-color="#d6b849"/><stop offset="67%" stop-color="#ffce47"/><stop offset="100%" stop-color="#ffdb73"/></radialGradient><linearGradient id="b" x1="0%" y1="0%" x2="100%" y2="100%"><stop offset="0%" stop-color="#ffaf22"/><stop offset="100%" stop-color="#f09900"/></linearGradient><mask id="c"><path fill="#fff" d="M0 0h100v100H0z"/></mask></defs><symbol id="f"><use xlink:href="#e" width="100" height="100" transform="translate(5 37)"/></symbol><use xlink:href="#f" width="100" height="100"/></svg>